<svg xmlns="http://www.w3.org/2000/svg" xmlns:xlink="http://www.w3.org/1999/xlink" version="1.1" id="Layer_2_1_" x="0px" y="0px" style="enable-background:new 0 0 455.5 142.5;" xml:space="preserve" viewBox="1 0.7 452.5 141">
<style type="text/css">
	.st0{fill:#FFFFFF;}
	.st1{fill:#B90026;}
	.st2{fill:#1898AA;}
	.st3{fill:#E90021;}
</style>
<g id="Group_10">
	<g id="Group_8">
		<ellipse id="Ellipse_1" class="st0" cx="85.5" cy="4.1" rx="3.4" ry="3.4"/>
		<ellipse id="Ellipse_2" class="st1" cx="55" cy="5.2" rx="4.1" ry="4.1"/>
		<ellipse id="Ellipse_3" class="st2" cx="197.7" cy="39.1" rx="4.1" ry="4.1"/>
		<ellipse id="Ellipse_4" class="st0" cx="125.5" cy="136.4" rx="3.4" ry="3.4"/>
		<ellipse id="Ellipse_5" class="st0" cx="97.5" cy="129.5" rx="3.4" ry="3.4"/>
		<ellipse id="Ellipse_6" class="st0" cx="59.9" cy="115" rx="3.4" ry="3.4"/>
		<ellipse id="Ellipse_7" class="st0" cx="40.3" cy="100.1" rx="3.4" ry="3.4"/>
		<ellipse id="Ellipse_8" class="st0" cx="21.7" cy="84" rx="3.4" ry="3.4"/>
		<ellipse id="Ellipse_9" class="st0" cx="8" cy="66.2" rx="3.4" ry="3.4"/>
		<ellipse id="Ellipse_10" class="st0" cx="4.4" cy="45.7" rx="3.4" ry="3.4"/>
		<ellipse id="Ellipse_11" class="st0" cx="11.3" cy="25.9" rx="3.4" ry="3.4"/>
		<ellipse id="Ellipse_12" class="st0" cx="32.4" cy="12.8" rx="3.4" ry="3.4"/>
		<ellipse id="Ellipse_13" class="st0" cx="119" cy="8.3" rx="3.4" ry="3.4"/>
		<ellipse id="Ellipse_14" class="st0" cx="148.1" cy="14.9" rx="3.4" ry="3.4"/>
		<ellipse id="Ellipse_15" class="st0" cx="173.9" cy="26.5" rx="3.4" ry="3.4"/>
		<ellipse id="Ellipse_16" class="st2" cx="155.5" cy="137.6" rx="4.1" ry="4.1"/>
	</g>
	<g id="Group_9">
		<path id="Path_8" class="st2" d="M125.2,56l44.2-5.1l-23.5,19.6L125.2,56z"/>
		<path id="Path_9" class="st2" d="M121.8,92.2l24-21.2l3.5,57L121.8,92.2z"/>
		<path id="Path_10" class="st1" d="M61.2,140l60.3-50l-25-19.2L61.2,140z"/>
		<path id="Path_11" class="st1" d="M122.5,56.3l-26,14.5L62.3,13.6L122.5,56.3z"/>
		<path id="Path_12" class="st1" d="M132.2,52.6l-0.1,0.1c-5.3,3-12,1.4-15.2-3.8l-0.2-0.3c-3.3-5.3-1.7-12.2,3.6-15.6    c3.8-2.4,8.8-2.3,12.5,0.3l0.3,0.2c5.1,3.6,6.3,10.7,2.6,15.8C134.8,50.7,133.6,51.7,132.2,52.6L132.2,52.6z"/>
	</g>
</g>
<path id="Path_13" class="st3" d="M143.1,70.8l-20.6-14.5l-26,14.5l25,19.2L143.1,70.8z"/>
<g id="Group_16">
	<g id="Group_14">
		<path id="Path_14" class="st0" d="M438.4,99.2c0.4,7.5-5.4,14-12.9,14.3c-0.2,0-0.4,0-0.6,0c-7.7-0.1-13.8-6.5-13.7-14.2    c0-0.1,0-0.2,0-0.3v-0.2c-0.4-7.5,5.4-13.9,12.9-14.3s13.8,5.4,14.3,12.8c0,0.5,0,1.1,0,1.6L438.4,99.2z M424.9,71.1    c-15.5-0.4-28.4,11.8-28.8,27.3c0,0.2,0,0.4,0,0.7v0.2c0.6,15.8,13.9,28.2,29.7,27.7c15.1-0.5,27.2-12.7,27.7-27.8V99    c0-15.3-12.4-27.8-27.7-27.8C425.5,71.1,425.2,71.1,424.9,71.1"/>
	</g>
	<path id="Path_15" class="st0" d="M178,71.1h15.3v22.7l19.2-22.7h18.1l-21,24l21.7,31.9H213l-14-20.8l-5.6,6.2V127H178V71.1z"/>
	<path id="Path_16" class="st0" d="M235.6,71.1h44.6v13.1h-29.4v8.5h26.6V105h-26.6v8.9h29.8V127h-44.9L235.6,71.1z"/>
	<path id="Path_17" class="st0" d="M286.9,71.1h14.3l22.8,29.5V71.1h15.2V127h-13.4l-23.7-30.7V127H287L286.9,71.1z"/>
	<g id="Group_15">
		<path id="Path_18" class="st0" d="M344.6,99L344.6,99c-0.2-15.2,11.9-27.7,27-27.9h1.1c9-0.4,17.5,3.9,22.6,11.2l-11.1,8.6    c-2.6-3.9-7-6.2-11.6-6.3c-7.4,0.3-13.1,6.5-12.8,13.9c0,0.1,0,0.2,0,0.3V99c-0.6,7.3,4.8,13.8,12.1,14.4l0,0c0.2,0,0.4,0,0.6,0    c4.8,0,9.4-2.5,12-6.5l11.1,8c-5.2,7.9-14.2,12.5-23.6,12c-15,0.1-27.3-12-27.4-27L344.6,99"/>
	</g>
</g>
</svg>